<?xml version="1.0" encoding="utf-8"?>
<!-- Generator: Adobe Illustrator 21.1.0, SVG Export Plug-In . SVG Version: 6.00 Build 0)  -->
<svg version="1.1" xmlns="http://www.w3.org/2000/svg" xmlns:xlink="http://www.w3.org/1999/xlink" x="0px" y="0px"
	 viewBox="0 0 724.2 156.2" style="enable-background:new 0 0 724.2 156.2;" xml:space="preserve">
<style type="text/css">
	.st0{fill-rule:evenodd;clip-rule:evenodd;}
	.st1{fill-rule:evenodd;clip-rule:evenodd;fill:none;stroke:#000000;stroke-width:0.1303;stroke-miterlimit:3.8637;}
</style>
<g id="Guides">
</g>
<g id="Foreground">
</g>
<g id="Background">
	<g>
		<path class="st0" d="M0.1,153.3V5.7h91.7c0,0,65.2-1,82.9,46.4c0,0,20.8,52.6-22.9,83.9c0,0-16.2,12.5-57.3,17.7L0.1,153.3z
			 M40.2,150.6V8.9c0,0,26.1-1.6,39.6-0.5c0,0,53.7-2.6,58.4,50c0,0,8.3,62.5-17.7,78.2c0,0-4.7,8.3-33.9,14.1H40.2z M207.5,153.8
			V5.7h149.1v35.4h-4.2c0,0-7.3-27.6-50-31.3h-54.7v61.5h30.8c0,0,25-1,32.8-29.2h3.1v63.6h-3.6c0,0-5.2-29.2-35.4-30.2h-28.1v74
			h51.1c0,0,44.3,0,54.7-40.7h3.6v44.3L207.5,153.8z M385.5,109.2h2.9c0,0,8.1,34.7,51.9,43c0,0,34.4,5.2,57.3-9.6
			c0,0,9.9-6.8,12-17.2c0,0,2.6-16.2-17.5-21.9l-28.9-7.6c0,0-46.9-12.8-53.2-19.5c0,0-27.1-12.2-16.9-43.8c0,0,9.4-26.6,60.7-30
			c0,0,45.9-3.6,68.8,13.6v29.4h-3.4c0,0-9.4-33.9-45.1-39.4c0,0-44.3-5.7-59.4,15.9c0,0-8.6,14.1,9.6,22.4c0,0,7.6,3.4,48.2,13
			c0,0,39.1,7.3,55.8,22.7c0,0,16.2,12.3,6.8,38.8c0,0-7.6,19.8-39.1,30.5c0,0-16.9,9.6-62.3,5.5c0,0-40.9-3.9-48.2-7.6V109.2z
			 M546.3,153.8L629.8,0.1h6.8l87.5,153.7h-41.7l-32.8-57.3h-68.8l-30.2,57.3H546.3z M647.1,92.8h-63.8l31.3-57.5L647.1,92.8z"/>
		<path class="st1" d="M0.1,153.3V5.7h91.7c0,0,65.2-1,82.9,46.4c0,0,20.8,52.6-22.9,83.9c0,0-16.2,12.5-57.3,17.7L0.1,153.3z
			 M40.2,150.6V8.9c0,0,26.1-1.6,39.6-0.5c0,0,53.7-2.6,58.4,50c0,0,8.3,62.5-17.7,78.2c0,0-4.7,8.3-33.9,14.1H40.2z M207.5,153.8
			V5.7h149.1v35.4h-4.2c0,0-7.3-27.6-50-31.3h-54.7v61.5h30.8c0,0,25-1,32.8-29.2h3.1v63.6h-3.6c0,0-5.2-29.2-35.4-30.2h-28.1v74
			h51.1c0,0,44.3,0,54.7-40.7h3.6v44.3L207.5,153.8z M385.5,109.2h2.9c0,0,8.1,34.7,51.9,43c0,0,34.4,5.2,57.3-9.6
			c0,0,9.9-6.8,12-17.2c0,0,2.6-16.2-17.5-21.9l-28.9-7.6c0,0-46.9-12.8-53.2-19.5c0,0-27.1-12.2-16.9-43.8c0,0,9.4-26.6,60.7-30
			c0,0,45.9-3.6,68.8,13.6v29.4h-3.4c0,0-9.4-33.9-45.1-39.4c0,0-44.3-5.7-59.4,15.9c0,0-8.6,14.1,9.6,22.4c0,0,7.6,3.4,48.2,13
			c0,0,39.1,7.3,55.8,22.7c0,0,16.2,12.3,6.8,38.8c0,0-7.6,19.8-39.1,30.5c0,0-16.9,9.6-62.3,5.5c0,0-40.9-3.9-48.2-7.6V109.2z
			 M546.3,153.8L629.8,0.1h6.8l87.5,153.7h-41.7l-32.8-57.3h-68.8l-30.2,57.3H546.3z M647.1,92.8h-63.8l31.3-57.5L647.1,92.8z"/>
	</g>
</g>
</svg>
